<!DOCTYPE svg PUBLIC "-//W3C//DTD SVG 20010904//EN" "http://www.w3.org/TR/2001/REC-SVG-20010904/DTD/svg10.dtd">
<svg version="1.0" xmlns="http://www.w3.org/2000/svg" width="308px" height="95px" viewBox="0 0 3080 950" preserveAspectRatio="xMidYMid meet">
<g id="layer101" fill="#0c1b2b" stroke="none">
<path d="M0 475 l0 -475 1540 0 1540 0 0 475 0 475 -1540 0 -1540 0 0 -475z"/>
</g>
<g id="layer102" fill="#142437" stroke="none">
<path d="M0 475 l0 -475 1540 0 1540 0 0 475 0 475 -844 0 c-666 0 -845 -3 -849 -12 -4 -10 -6 -10 -6 0 -1 16 -103 16 -119 0 -9 -9 -12 -9 -12 0 0 9 -146 12 -625 12 l-625 0 0 -475z m1488 401 c41 -36 60 -85 60 -159 0 -37 -4 -69 -8 -72 -5 -3 -6 18 -3 47 10 99 -32 184 -102 209 -19 7 -32 16 -29 21 6 9 45 -14 82 -46z m-289 21 c-34 -17 -50 -35 -71 -77 -16 -29 -28 -48 -28 -41 0 46 87 141 129 141 8 0 -6 -10 -30 -23z m145 -78 c-3 -6 -18 -9 -32 -6 -19 4 -33 -3 -54 -23 -47 -48 -33 -136 26 -160 15 -6 17 -9 4 -9 -29 -1 -68 56 -68 101 0 52 51 108 100 108 20 0 29 -4 24 -11z m51 -19 c3 -5 4 -10 1 -10 -3 0 -8 5 -11 10 -3 6 -4 10 -1 10 3 0 8 -4 11 -10z m31 -64 c5 -21 4 -27 -5 -21 -7 4 -10 9 -7 12 2 3 0 17 -5 32 -7 17 -7 23 0 16 5 -5 13 -23 17 -39z m-329 -28 c-2 -13 -4 -5 -4 17 -1 22 1 32 4 23 2 -10 2 -28 0 -40z m320 -25 c-4 -3 -7 0 -7 7 0 7 3 10 7 7 3 -4 3 -10 0 -14z m-264 -102 c12 -13 40 -32 62 -42 22 -10 34 -19 27 -19 -47 -1 -143 95 -142 142 1 7 8 -3 16 -22 8 -19 25 -46 37 -59z m237 65 c-22 -22 -96 -51 -77 -30 4 4 18 9 30 11 12 2 31 12 42 23 11 11 22 20 24 20 3 0 -6 -11 -19 -24z m120 -56 c-21 -29 -86 -70 -112 -70 -6 0 10 11 38 25 27 13 58 38 69 54 11 17 21 28 23 26 2 -2 -6 -18 -18 -35z m-153 -82 c-20 -7 -39 -7 -60 0 -29 9 -27 10 28 10 53 0 57 -1 32 -10z"/>
</g>
<g id="layer103" fill="#b89e72" stroke="none">
<path d="M0 475 l0 -475 1540 0 1540 0 0 475 0 475 -845 0 c-465 0 -845 -3 -845 -7 1 -5 23 -19 51 -32 67 -31 101 -83 107 -162 6 -82 -4 -124 -41 -166 -45 -51 -107 -77 -187 -76 -105 1 -175 40 -211 118 -21 45 -24 126 -8 176 15 45 74 106 116 120 18 6 33 15 33 20 0 5 -250 9 -625 9 l-625 0 0 -475z"/>
</g>
<g id="layer104" fill="#c29f70" stroke="none">
<path d="M0 475 l0 -475 1540 0 1540 0 0 475 0 475 -845 0 c-465 0 -845 -3 -845 -7 1 -5 23 -19 51 -32 67 -31 101 -83 107 -162 6 -82 -4 -124 -41 -166 -45 -51 -107 -77 -187 -76 -105 1 -175 40 -211 118 -21 45 -24 126 -8 176 15 45 74 106 116 120 18 6 33 15 33 20 0 5 -250 9 -625 9 l-625 0 0 -475z m699 431 c13 -15 12 -114 -1 -122 -4 -3 -8 24 -8 60 l0 65 -47 4 -48 3 46 2 c29 1 51 -3 58 -12z m149 7 c-10 -2 -28 -2 -40 0 -13 2 -5 4 17 4 22 1 32 -1 23 -4z m200 -195 l-3 -203 -2 198 -3 199 -60 -4 c-33 -1 -60 0 -60 5 0 4 29 7 65 7 l65 0 -2 -202z m835 195 c3 -5 -39 -7 -93 -5 -93 3 -99 2 -105 -18 -4 -12 -9 -19 -12 -17 -2 3 0 15 7 26 10 19 20 21 105 21 51 0 96 -3 98 -7z m317 -196 c3 -108 2 -197 -2 -197 -5 0 -8 88 -8 195 l0 194 -62 4 -63 3 65 0 65 -1 5 -198z m238 196 l-178 -3 0 -195 c0 -123 -4 -195 -10 -195 -11 0 -14 382 -3 393 3 4 88 6 187 5 l181 -3 -177 -2z m-1858 -198 c0 -123 -4 -195 -10 -195 -6 0 -10 69 -10 188 0 166 3 202 17 202 2 0 3 -88 3 -195z m177 153 c-3 -7 -5 -2 -5 12 0 14 2 19 5 13 2 -7 2 -19 0 -25z m110 0 c-3 -7 -5 -2 -5 12 0 14 2 19 5 13 2 -7 2 -19 0 -25z m60 -70 c-2 -18 -4 -4 -4 32 0 36 2 50 4 33 2 -18 2 -48 0 -65z m970 75 c-4 -3 -7 0 -7 7 0 7 3 10 7 7 3 -4 3 -10 0 -14z m170 -260 c-1 -54 -3 -12 -3 92 0 105 2 149 3 98 2 -51 2 -136 0 -190z m-1320 220 c-4 -3 -7 0 -7 7 0 7 3 10 7 7 3 -4 3 -10 0 -14z m130 0 c-4 -3 -7 0 -7 7 0 7 3 10 7 7 3 -4 3 -10 0 -14z m1040 -10 c-4 -3 -7 0 -7 7 0 7 3 10 7 7 3 -4 3 -10 0 -14z m-260 -10 c-4 -3 -7 0 -7 7 0 7 3 10 7 7 3 -4 3 -10 0 -14z m-920 -20 c-4 -3 -7 0 -7 7 0 7 3 10 7 7 3 -4 3 -10 0 -14z m150 -5 c-3 -8 -6 -5 -6 6 -1 11 2 17 5 13 3 -3 4 -12 1 -19z m760 -5 c-4 -3 -7 0 -7 7 0 7 3 10 7 7 3 -4 3 -10 0 -14z m302 -43 c0 -8 -6 0 -14 19 -8 18 -15 36 -15 40 1 13 29 -45 29 -59z m-1034 12 c-3 -3 -11 0 -18 7 -9 10 -8 11 6 5 10 -3 15 -9 12 -12z m902 1 c-4 -3 -7 0 -7 7 0 7 3 10 7 7 3 -4 3 -10 0 -14z m-1100 0 c-4 -3 -10 -3 -14 0 -3 4 0 7 7 7 7 0 10 -3 7 -7z m1040 -10 c-4 -3 -7 0 -7 7 0 7 3 10 7 7 3 -4 3 -10 0 -14z m853 -30 c0 -25 -3 -43 -7 -39 -4 4 -6 22 -4 41 l2 34 -108 4 -108 3 113 2 112 2 0 -47z m-983 20 c-4 -3 -7 0 -7 7 0 7 3 10 7 7 3 -4 3 -10 0 -14z m-835 -30 c-3 -16 -7 -22 -10 -15 -4 13 4 42 11 42 2 0 2 -12 -1 -27z m955 10 c-4 -3 -7 0 -7 7 0 7 3 10 7 7 3 -4 3 -10 0 -14z m-140 -40 c-4 -3 -7 0 -7 7 0 7 3 10 7 7 3 -4 3 -10 0 -14z m800 10 c-4 -3 -10 -3 -14 0 -3 4 0 7 7 7 7 0 10 -3 7 -7z m-1630 -35 c-3 -8 -6 -5 -6 6 -1 11 2 17 5 13 3 -3 4 -12 1 -19z m70 5 c-4 -3 -7 0 -7 7 0 7 3 10 7 7 3 -4 3 -10 0 -14z m880 0 c-4 -3 -7 0 -7 7 0 7 3 10 7 7 3 -4 3 -10 0 -14z m250 0 c-4 -3 -7 0 -7 7 0 7 3 10 7 7 3 -4 3 -10 0 -14z m-386 -20 c-12 -20 -14 -14 -5 12 4 9 9 14 11 11 3 -2 0 -13 -6 -23z m266 0 c-4 -3 -7 0 -7 7 0 7 3 10 7 7 3 -4 3 -10 0 -14z m-1000 -10 c-4 -3 -7 0 -7 7 0 7 3 10 7 7 3 -4 3 -10 0 -14z m-90 -15 c-3 -8 -6 -5 -6 6 -1 11 2 17 5 13 3 -3 4 -12 1 -19z m810 -15 c-4 -3 -7 0 -7 7 0 7 3 10 7 7 3 -4 3 -10 0 -14z m130 0 c-4 -3 -7 0 -7 7 0 7 3 10 7 7 3 -4 3 -10 0 -14z m-950 -25 c-3 -8 -6 -5 -6 6 -1 11 2 17 5 13 3 -3 4 -12 1 -19z m110 5 c-4 -3 -7 0 -7 7 0 7 3 10 7 7 3 -4 3 -10 0 -14z m1140 0 c-4 -3 -7 0 -7 7 0 7 3 10 7 7 3 -4 3 -10 0 -14z m-440 -10 c-4 -3 -7 0 -7 7 0 7 3 10 7 7 3 -4 3 -10 0 -14z m130 0 c-4 -3 -7 0 -7 7 0 7 3 10 7 7 3 -4 3 -10 0 -14z m320 -20 c-4 -3 -7 0 -7 7 0 7 3 10 7 7 3 -4 3 -10 0 -14z m-1133 -9 c3 -8 2 -12 -4 -9 -6 3 -10 10 -10 16 0 14 7 11 14 -7z m797 -7 c-10 -9 -11 -8 -5 6 3 10 9 15 12 12 3 -3 0 -11 -7 -18z m104 3 c3 -5 4 -10 1 -10 -3 0 -8 5 -11 10 -3 6 -4 10 -1 10 3 0 8 -4 11 -10z m-1038 -7 c-4 -3 -10 -3 -14 0 -3 4 0 7 7 7 7 0 10 -3 7 -7z m1540 0 c-4 -3 -10 -3 -14 0 -3 4 0 7 7 7 7 0 10 -3 7 -7z m310 0 c-4 -3 -10 -3 -14 0 -3 4 0 7 7 7 7 0 10 -3 7 -7z m-800 -40 c-4 -3 -7 0 -7 7 0 7 3 10 7 7 3 -4 3 -10 0 -14z m-542 -58 c6 -2 -23 -4 -62 -3 -40 1 -73 4 -73 8 0 6 116 2 135 -5z m595 5 c8 -5 11 -10 5 -10 -5 0 -17 5 -25 10 -8 5 -10 10 -5 10 6 0 17 -5 25 -10z m-143 -7 c-13 -3 -16 -11 -11 -31 4 -23 4 -24 -6 -9 -15 23 -6 47 17 46 17 -1 17 -2 0 -6z m-214 -10 c-7 -2 -21 -2 -30 0 -10 3 -4 5 12 5 17 0 24 -2 18 -5z m252 -3 c3 -5 4 -10 1 -10 -3 0 -8 5 -11 10 -3 6 -4 10 -1 10 3 0 8 -4 11 -10z m154 -24 c-3 -3 -11 5 -18 17 -13 21 -12 21 5 5 10 -10 16 -20 13 -22z m-576 -22 c-6 -17 -16 -19 -10 -1 2 6 -3 21 -12 32 -16 20 -16 20 6 2 12 -11 19 -25 16 -33z m67 27 c0 -35 -13 -83 -19 -72 -9 14 -1 91 10 91 5 0 9 -8 9 -19z m134 -19 c-6 -9 -22 -18 -35 -19 -24 -2 -24 -2 1 6 17 5 25 14 24 29 0 16 2 20 10 12 7 -7 7 -16 0 -28z m47 25 c-1 -4 -1 -19 -1 -34 0 -33 -5 -28 -13 15 -5 22 -3 32 4 30 6 -2 10 -7 10 -11z m-423 -43 c-2 -15 -8 -29 -14 -31 -9 -3 -11 28 -5 77 1 2 6 -1 12 -7 6 -6 9 -23 7 -39z m458 8 c-9 -17 -21 -34 -27 -38 -6 -3 0 12 12 34 27 47 38 49 15 4z m44 0 c0 -21 -6 -46 -13 -56 -11 -15 -12 -9 -3 38 6 31 12 56 13 56 2 0 3 -17 3 -38z m190 34 c0 -3 -5 -8 -12 -12 -7 -4 -8 -3 -4 4 7 12 16 16 16 8z m-43 -23 c-4 -3 -7 0 -7 7 0 7 3 10 7 7 3 -4 3 -10 0 -14z m110 -20 c-4 -3 -7 0 -7 7 0 7 3 10 7 7 3 -4 3 -10 0 -14z m-570 -25 c-3 -7 -5 -2 -5 12 0 14 2 19 5 13 2 -7 2 -19 0 -25z m558 4 c-7 -8 -35 7 -35 18 0 6 7 6 20 -2 10 -7 17 -14 15 -16z m-653 -14 c-6 -6 -12 -6 -17 3 -5 8 -4 10 3 5 7 -4 12 0 13 11 0 12 2 13 6 5 3 -8 1 -18 -5 -24z m186 20 c-2 -9 11 -13 39 -13 23 0 45 -3 49 -7 4 -5 -13 -8 -38 -8 -43 0 -76 18 -61 33 10 10 13 8 11 -5z m297 -8 c3 -5 4 -10 1 -10 -3 0 -8 5 -11 10 -3 6 -4 10 -1 10 3 0 8 -4 11 -10z m-395 -35 c0 -5 -5 -3 -10 5 -5 8 -10 20 -10 25 0 6 5 3 10 -5 5 -8 10 -19 10 -25z m-263 18 c-4 -3 -10 -3 -14 0 -3 4 0 7 7 7 7 0 10 -3 7 -7z m140 1 c-3 -3 -12 -4 -19 -1 -8 3 -5 6 6 6 11 1 17 -2 13 -5z m500 -1 c-4 -3 -10 -3 -14 0 -3 4 0 7 7 7 7 0 10 -3 7 -7z m70 0 c-4 -3 -10 -3 -14 0 -3 4 0 7 7 7 7 0 10 -3 7 -7z m-670 -9 c-3 -3 -12 -4 -19 -1 -8 3 -5 6 6 6 11 1 17 -2 13 -5z m203 -8 c0 -3 -5 -8 -12 -12 -7 -4 -8 -3 -4 4 7 12 16 16 16 8z m-167 -20 c3 -8 0 -19 -6 -24 -9 -8 -12 -4 -13 14 -2 26 11 33 19 10z m155 -23 c-6 -7 -13 -11 -16 -8 -3 3 -15 -3 -26 -12 -18 -15 -18 -14 2 8 23 27 62 38 40 12z m53 -14 c-5 -13 -10 -19 -10 -12 -1 15 10 45 15 40 3 -2 0 -15 -5 -28z m33 -15 c3 -8 2 -12 -4 -9 -6 3 -10 10 -10 16 0 14 7 11 14 -7z m-154 -8 c0 -3 -5 -8 -12 -12 -7 -4 -8 -3 -4 4 7 12 16 16 16 8z m145 -16 c3 -5 2 -10 -4 -10 -5 0 -13 5 -16 10 -3 6 -2 10 4 10 5 0 13 -4 16 -10z m-178 -17 c-4 -3 -7 0 -7 7 0 7 3 10 7 7 3 -4 3 -10 0 -14z m238 7 c-3 -5 -11 -10 -16 -10 -6 0 -7 5 -4 10 3 6 11 10 16 10 6 0 7 -4 4 -10z m-255 -9 c0 -18 -177 -42 -190 -26 -7 8 6 10 43 8 30 -3 69 2 92 11 48 18 55 19 55 7z"/>
</g>
<g id="layer105" fill="#b19e84" stroke="none">
<path d="M0 475 l0 -475 1540 0 1540 0 0 475 0 475 -845 0 c-465 0 -845 -3 -845 -7 1 -5 23 -19 51 -32 67 -31 101 -83 107 -162 6 -82 -4 -124 -41 -166 -45 -51 -107 -77 -187 -76 -105 1 -175 40 -211 118 -21 45 -24 126 -8 176 15 45 74 106 116 120 18 6 33 15 33 20 0 5 -250 9 -625 9 l-625 0 0 -475z m699 431 c14 -17 12 -113 -3 -125 -8 -7 -10 10 -8 59 l4 69 -49 4 -48 3 46 2 c29 1 51 -3 58 -12z m62 -22 c-5 -16 -10 -21 -10 -12 -1 18 10 51 15 45 2 -1 -1 -16 -5 -33z m87 29 c-10 -2 -28 -2 -40 0 -13 2 -5 4 17 4 22 1 32 -1 23 -4z m202 -193 l0 -201 -87 3 c-60 2 -87 7 -89 16 -1 7 0 8 3 2 2 -5 40 -10 84 -10 l79 0 0 190 0 190 -55 0 -54 0 -4 -72 -3 -73 -2 78 -2 77 65 0 65 0 0 -200z m833 193 c3 -5 -39 -7 -93 -5 -93 3 -99 2 -105 -18 -4 -12 -9 -19 -12 -17 -2 3 0 15 7 26 10 19 20 21 105 21 51 0 96 -3 98 -7z m317 -196 c3 -108 2 -198 -2 -200 -4 -1 -37 0 -73 1 l-65 4 0 199 0 200 68 -3 67 -3 5 -198z m237 196 l-178 -3 1 -190 c1 -170 3 -190 18 -191 14 0 13 -2 -3 -8 -11 -5 -23 -7 -27 -4 -10 5 -11 387 -1 396 3 4 88 6 187 5 l181 -3 -178 -2z m-1769 -385 l87 -2 -90 -5 c-49 -3 -93 -5 -97 -3 -10 4 -10 376 0 386 4 4 8 -78 10 -183 l2 -191 88 -2z m199 340 c-3 -7 -5 -2 -5 12 0 14 2 19 5 13 2 -7 2 -19 0 -25z m1030 5 c-4 -3 -7 0 -7 7 0 7 3 10 7 7 3 -4 3 -10 0 -14z m-1150 -45 c-3 -8 -6 -5 -6 6 -1 11 2 17 5 13 3 -3 4 -12 1 -19z m130 5 c-4 -3 -7 0 -7 7 0 7 3 10 7 7 3 -4 3 -10 0 -14z m1040 -10 c-4 -3 -7 0 -7 7 0 7 3 10 7 7 3 -4 3 -10 0 -14z m-266 -34 c-6 -17 -8 -36 -4 -42 3 -5 1 -7 -5 -3 -5 3 -13 1 -15 -4 -6 -12 -3 2 14 53 7 20 14 35 17 33 2 -3 -1 -19 -7 -37z m776 34 c-4 -3 -10 -3 -14 0 -3 4 0 7 7 7 7 0 10 -3 7 -7z m180 1 c-3 -3 -12 -4 -19 -1 -8 3 -5 6 6 6 11 1 17 -2 13 -5z m-1719 -35 c-3 -8 -7 -3 -11 10 -4 17 -3 21 5 13 5 -5 8 -16 6 -23z m-151 -11 c-3 -7 -5 -2 -5 12 0 14 2 19 5 13 2 -7 2 -19 0 -25z m1212 -38 c0 -8 -6 0 -14 19 -8 18 -15 36 -15 40 1 13 29 -45 29 -59z m428 38 c-3 -8 -6 -5 -6 6 -1 11 2 17 5 13 3 -3 4 -12 1 -19z m-610 -5 c-4 -3 -7 0 -7 7 0 7 3 10 7 7 3 -4 3 -10 0 -14z m54 -9 c5 -15 8 -29 5 -31 -2 -2 -8 10 -14 26 -13 38 -5 41 9 5z m-906 -12 c-3 -3 -11 0 -18 7 -9 10 -8 11 6 5 10 -3 15 -9 12 -12z m-198 1 c-4 -3 -10 -3 -14 0 -3 4 0 7 7 7 7 0 10 -3 7 -7z m1040 -10 c-4 -3 -7 0 -7 7 0 7 3 10 7 7 3 -4 3 -10 0 -14z m853 -28 l0 -45 -104 0 c-59 0 -108 4 -111 10 -4 6 32 10 99 10 l106 0 0 30 0 29 -107 4 -108 3 113 2 112 2 0 -45z m-1818 -12 c-3 -16 -7 -22 -10 -15 -4 13 4 42 11 42 2 0 2 -12 -1 -27z m955 10 c-4 -3 -7 0 -7 7 0 7 3 10 7 7 3 -4 3 -10 0 -14z m-910 -15 c-3 -8 -6 -5 -6 6 -1 11 2 17 5 13 3 -3 4 -12 1 -19z m773 -15 c-11 -17 -11 -17 -6 0 3 10 6 24 7 30 0 9 2 9 5 0 3 -7 0 -20 -6 -30z m227 15 c-3 -8 -6 -5 -6 6 -1 11 2 17 5 13 3 -3 4 -12 1 -19z m-100 -15 c-4 -3 -7 0 -7 7 0 7 3 10 7 7 3 -4 3 -10 0 -14z m-869 -98 c0 -11 -6 3 -14 30 -7 28 -13 55 -13 60 2 17 27 -69 27 -90z m979 78 c-4 -3 -7 0 -7 7 0 7 3 10 7 7 3 -4 3 -10 0 -14z m-1070 -15 c-3 -8 -6 -5 -6 6 -1 11 2 17 5 13 3 -3 4 -12 1 -19z m944 -9 c-5 -13 -10 -19 -10 -12 -1 15 10 45 15 40 3 -2 0 -15 -5 -28z m256 14 c-4 -3 -7 0 -7 7 0 7 3 10 7 7 3 -4 3 -10 0 -14z m-389 -43 c-11 -22 -21 -51 -22 -65 0 -14 -7 -27 -15 -30 -9 -4 -11 0 -6 12 4 10 16 44 27 76 11 31 23 55 28 52 4 -3 -1 -23 -12 -45z m291 -30 c0 -8 -7 1 -14 20 -18 46 -17 64 0 25 8 -16 14 -37 14 -45z m498 53 c-4 -3 -7 0 -7 7 0 7 3 10 7 7 3 -4 3 -10 0 -14z m-1617 -53 c-6 -23 -14 -40 -16 -37 -3 3 0 24 7 46 16 54 24 46 9 -9z m917 33 c-4 -3 -7 0 -7 7 0 7 3 10 7 7 3 -4 3 -10 0 -14z m933 13 c0 -3 -5 -8 -12 -12 -7 -4 -8 -3 -4 4 7 12 16 16 16 8z m-903 -33 c-4 -3 -7 0 -7 7 0 7 3 10 7 7 3 -4 3 -10 0 -14z m300 -20 c-4 -3 -7 0 -7 7 0 7 3 10 7 7 3 -4 3 -10 0 -14z m-310 -10 c-4 -3 -7 0 -7 7 0 7 3 10 7 7 3 -4 3 -10 0 -14z m320 -20 c-4 -3 -7 0 -7 7 0 7 3 10 7 7 3 -4 3 -10 0 -14z m-338 -16 c-9 -9 -29 -11 -59 -6 l-45 6 53 1 c32 1 52 6 52 14 0 6 3 8 7 4 4 -3 0 -12 -8 -19z m107 -5 c0 -4 4 -15 9 -25 5 -11 3 -23 -5 -30 -10 -10 -12 -8 -6 7 4 12 0 23 -10 31 -10 7 -14 17 -10 24 8 12 20 7 22 -7z m212 1 c-21 -2 -55 -2 -75 0 -21 2 -4 4 37 4 41 0 58 -2 38 -4z m504 0 c-40 -2 -103 -2 -140 0 -37 2 -4 3 73 3 77 0 107 -2 67 -3z m111 0 c-7 -2 -19 -2 -25 0 -7 3 -2 5 12 5 14 0 19 -2 13 -5z m-810 -78 c-3 -9 -8 -14 -10 -11 -3 3 -2 9 2 15 9 16 15 13 8 -4z m-597 -15 c32 0 54 -4 54 -11 0 -6 -8 -8 -17 -5 -10 3 -42 6 -70 7 -29 2 -53 7 -53 12 0 5 7 6 16 3 9 -3 40 -6 70 -6z m662 -10 c17 -11 32 -25 31 -32 0 -10 -2 -10 -6 0 -4 11 -54 42 -68 42 -3 0 -3 -5 1 -12 4 -7 3 -8 -4 -4 -7 4 -14 -3 -18 -19 -5 -19 -10 -23 -17 -16 -8 8 -4 18 13 36 28 30 27 30 68 5z m-160 3 c-13 -3 -16 -12 -12 -36 4 -30 4 -30 -6 -8 -13 31 -6 51 17 50 16 -1 16 -2 1 -6z m-431 -20 c-4 -3 -7 0 -7 7 0 7 3 10 7 7 3 -4 3 -10 0 -14z m239 3 c15 -12 17 -18 8 -33 -6 -10 -22 -19 -35 -20 -24 -2 -24 -2 1 5 36 11 31 35 -10 49 -31 10 -32 12 -9 12 14 1 34 -5 45 -13z m229 4 c3 -5 -1 -10 -10 -10 -9 0 -13 5 -10 10 3 6 8 10 10 10 2 0 7 -4 10 -10z m-597 -57 c-5 -44 -28 -40 -28 5 0 21 3 42 7 46 11 11 25 -22 21 -51z m191 -16 c-2 -22 -2 -22 -6 1 -3 13 -9 19 -15 16 -7 -5 -9 -1 -5 9 3 9 0 18 -9 21 -8 3 -14 11 -14 18 0 7 12 0 25 -15 14 -15 24 -38 24 -50z m51 54 c0 -35 -13 -83 -19 -72 -9 14 -1 91 10 91 5 0 9 -8 9 -19z m182 -19 c-4 -41 3 -40 28 1 11 17 20 28 20 22 0 -5 -10 -25 -21 -44 -23 -38 -31 -33 -43 27 -4 24 -2 32 7 29 7 -2 11 -16 9 -35z m78 -10 c0 -21 -6 -46 -13 -56 -11 -15 -12 -9 -3 38 6 31 12 56 13 56 2 0 3 -17 3 -38z m187 32 c-4 -4 10 -20 30 -35 20 -16 29 -29 21 -29 -18 0 -71 54 -61 63 3 4 9 7 11 7 3 0 2 -3 -1 -6z m70 -41 c-4 -3 -7 0 -7 7 0 7 3 10 7 7 3 -4 3 -10 0 -14z m-660 -28 c-7 -17 -27 -21 -27 -4 0 5 5 7 10 4 6 -3 10 2 10 11 0 10 3 15 6 11 4 -3 4 -13 1 -22z m216 -1 c18 3 39 1 47 -4 11 -7 2 -10 -31 -10 -45 0 -77 18 -61 34 4 4 9 0 10 -9 3 -13 11 -16 35 -11z m297 -7 c14 -2 3 -4 -25 -4 -27 -1 -42 1 -32 4 10 3 14 9 10 16 -5 9 -3 9 8 0 8 -6 25 -13 39 -16z m-451 -48 c-11 -16 -23 -28 -26 -25 -3 3 -14 -5 -24 -17 -10 -12 -18 -18 -19 -14 0 5 16 27 35 50 19 22 35 48 35 56 1 13 2 13 11 -2 8 -13 5 -25 -12 -48z m-242 44 c-4 -3 -10 -3 -14 0 -3 4 0 7 7 7 7 0 10 -3 7 -7z m138 -3 c-3 -5 -20 -10 -37 -10 -25 0 -29 -3 -25 -20 3 -10 -1 -24 -7 -30 -18 -14 -25 -3 -17 28 5 19 16 29 37 33 45 10 56 10 49 -1z m-98 -6 c-3 -3 -12 -4 -19 -1 -8 3 -5 6 6 6 11 1 17 -2 13 -5z m286 -86 c9 -10 13 -18 8 -18 -6 0 -17 10 -26 23 -13 19 -17 20 -25 7 -11 -17 -13 0 -3 26 6 17 7 17 17 -1 6 -10 19 -27 29 -37z m-177 -24 c-11 -7 -22 -12 -25 -9 -2 3 4 12 15 19 10 8 21 12 24 9 3 -2 -4 -11 -14 -19z m159 6 c3 -5 2 -10 -4 -10 -5 0 -13 5 -16 10 -3 6 -2 10 4 10 5 0 13 -4 16 -10z m53 -16 c-9 -10 -21 -13 -29 -8 -9 5 -8 9 7 15 31 12 39 10 22 -7z m-248 -2 c0 -22 -171 -45 -190 -26 -7 7 7 9 42 7 31 -3 70 2 93 11 48 17 55 19 55 8z"/>
<path d="M1272 803 c-18 -7 -42 -57 -42 -88 0 -37 50 -85 88 -85 44 0 61 9 77 41 37 70 0 140 -72 138 -21 0 -44 -3 -51 -6z"/>
</g>
<g id="layer106" fill="#c1a370" stroke="none">
<path d="M0 475 l0 -475 1540 0 1540 0 0 475 0 475 -840 0 c-462 0 -840 -3 -840 -8 0 -4 19 -16 42 -27 111 -54 149 -195 82 -311 -26 -46 -53 -67 -116 -89 -95 -33 -190 -13 -259 55 -38 36 -49 55 -58 98 -22 104 22 203 109 247 28 14 50 28 50 30 0 3 -281 5 -625 5 l-625 0 0 -475z m706 378 c1 -36 -3 -66 -10 -72 -8 -7 -10 9 -8 60 l4 69 -56 0 -56 0 0 -190 0 -190 88 -2 87 -2 -90 -5 c-49 -3 -93 -5 -97 -3 -10 4 -11 363 -2 387 5 13 19 15 73 13 l66 -3 1 -62z m109 58 c-42 -5 -50 -10 -56 -31 -4 -14 -7 -18 -8 -8 -2 39 10 48 63 46 l51 -1 -50 -6z m235 -191 l0 -201 -87 3 c-60 2 -87 7 -89 16 -1 7 0 8 3 2 2 -5 40 -10 84 -10 l79 0 0 190 0 190 -55 0 -54 0 -4 -72 -3 -73 -2 78 -2 77 65 0 65 0 0 -200z m849 168 c6 -17 9 -33 7 -35 -2 -2 -8 10 -14 26 l-11 31 -95 0 c-87 0 -95 -2 -101 -21 -4 -11 -9 -18 -12 -16 -2 3 0 15 7 26 10 19 20 21 109 21 l99 0 11 -32z m304 -171 c1 -108 -1 -198 -5 -200 -4 -1 -37 0 -73 1 l-65 4 0 199 0 200 70 -3 71 -3 2 -198z m417 149 c0 -51 -1 -54 -22 -48 -19 5 -20 7 -6 10 14 3 17 13 16 43 l-1 39 -174 0 -174 0 1 -190 c1 -170 3 -190 18 -191 14 0 13 -2 -3 -8 -11 -5 -23 -7 -27 -4 -10 5 -11 387 -1 396 3 4 89 7 190 7 l183 0 0 -54z m-1742 -26 c0 -9 -3 -7 -8 5 -5 11 -8 29 -8 40 0 16 2 15 8 -5 4 -14 8 -32 8 -40z m789 3 c-4 -3 -7 0 -7 7 0 7 3 10 7 7 3 -4 3 -10 0 -14z m-920 -15 c-3 -8 -6 -5 -6 6 -1 11 2 17 5 13 3 -3 4 -12 1 -19z m1170 -5 c-4 -3 -7 0 -7 7 0 7 3 10 7 7 3 -4 3 -10 0 -14z m-266 -34 c-6 -17 -8 -36 -4 -42 3 -5 1 -7 -5 -3 -5 3 -13 1 -15 -4 -6 -12 -3 2 14 53 7 20 14 35 17 33 2 -3 -1 -19 -7 -37z m776 34 c-4 -3 -10 -3 -14 0 -3 4 0 7 7 7 7 0 10 -3 7 -7z m-1537 -22 c0 -11 8 -27 17 -37 13 -12 13 -16 3 -12 -17 5 -45 68 -30 68 5 0 10 -9 10 -19z m-153 -23 c-3 -7 -5 -2 -5 12 0 14 2 19 5 13 2 -7 2 -19 0 -25z m1217 -48 c3 -14 -3 -7 -13 15 -11 22 -19 47 -19 55 0 17 22 -32 32 -70z m431 61 c3 -5 1 -12 -5 -16 -5 -3 -10 1 -10 9 0 18 6 21 15 7z m-625 -38 c-11 -17 -11 -17 -6 0 3 10 6 24 7 30 0 9 2 9 5 0 3 -7 0 -20 -6 -30z m61 11 c5 -15 8 -29 5 -31 -2 -2 -8 10 -14 26 -13 38 -5 41 9 5z m-1104 -11 c-4 -3 -10 -3 -14 0 -3 4 0 7 7 7 7 0 10 -3 7 -7z m1893 -38 l0 -45 -104 0 c-59 0 -108 4 -111 10 -4 6 32 10 99 10 l106 0 0 30 0 29 -107 4 -108 3 113 2 112 2 0 -45z m-1818 -12 c-3 -16 -7 -22 -10 -15 -4 13 4 42 11 42 2 0 2 -12 -1 -27z m955 10 c-4 -3 -7 0 -7 7 0 7 3 10 7 7 3 -4 3 -10 0 -14z m-910 -15 c-3 -8 -6 -5 -6 6 -1 11 2 17 5 13 3 -3 4 -12 1 -19z m778 0 c-3 -13 -8 -30 -9 -38 -2 -8 -11 -33 -21 -55 -10 -22 -18 -50 -19 -62 0 -13 -7 -25 -15 -28 -8 -3 -11 0 -8 7 2 7 19 55 38 106 18 50 35 92 37 92 3 0 1 -10 -3 -22z m222 0 c-3 -8 -6 -5 -6 6 -1 11 2 17 5 13 3 -3 4 -12 1 -19z m-100 -15 c-4 -3 -7 0 -7 7 0 7 3 10 7 7 3 -4 3 -10 0 -14z m-869 -98 c0 -11 -6 3 -14 30 -7 28 -13 55 -13 60 2 17 27 -69 27 -90z m979 78 c-4 -3 -7 0 -7 7 0 7 3 10 7 7 3 -4 3 -10 0 -14z m142 -28 c0 -5 -4 -3 -9 5 -5 8 -9 22 -9 30 0 16 17 -16 18 -35z m-1212 13 c-3 -8 -6 -5 -6 6 -1 11 2 17 5 13 3 -3 4 -12 1 -19z m944 -9 c-5 -13 -10 -19 -10 -12 -1 15 10 45 15 40 3 -2 0 -15 -5 -28z m667 9 c-2 -10 27 -14 115 -16 l117 -3 0 -54 c0 -51 -2 -55 -22 -54 -17 1 -19 2 -5 6 13 3 17 15 17 49 0 24 -3 43 -7 43 -5 -1 -53 -1 -108 0 -101 1 -133 9 -121 30 9 15 17 14 14 -1z m-509 -68 c0 -8 -7 1 -14 20 -18 46 -17 64 0 25 8 -16 14 -37 14 -45z m-1119 0 c-6 -23 -14 -40 -16 -37 -3 3 0 24 7 46 16 54 24 46 9 -9z m917 33 c-4 -3 -7 0 -7 7 0 7 3 10 7 7 3 -4 3 -10 0 -14z m320 -10 c-4 -3 -7 0 -7 7 0 7 3 10 7 7 3 -4 3 -10 0 -14z m-290 -10 c-4 -3 -7 0 -7 7 0 7 3 10 7 7 3 -4 3 -10 0 -14z m317 -50 c7 -23 6 -23 -66 -21 l-73 2 67 3 67 4 -9 25 c-6 14 -10 28 -10 32 1 10 17 -20 24 -45z m-327 20 c-4 -3 -7 0 -7 7 0 7 3 10 7 7 3 -4 3 -10 0 -14z m-18 -36 c-9 -9 -29 -11 -59 -6 l-45 6 53 1 c32 1 52 6 52 14 0 6 3 8 7 4 4 -3 0 -12 -8 -19z m108 3 c-3 -11 -2 -20 3 -20 12 0 19 -54 9 -70 -7 -11 -8 -8 -3 9 4 18 3 22 -7 16 -9 -6 -11 -3 -6 10 5 11 1 22 -10 30 -15 11 -15 15 -4 29 18 22 24 20 18 -4z m715 -7 c-40 -2 -103 -2 -140 0 -37 2 -4 3 73 3 77 0 107 -2 67 -3z m-1305 -91 c80 0 118 -18 134 -64 7 -21 9 -41 6 -45 -4 -3 -7 4 -7 16 0 14 -4 20 -12 15 -7 -5 -10 -2 -6 7 5 15 -26 51 -36 41 -3 -3 -6 -1 -6 4 0 5 -8 10 -17 10 -116 6 -133 8 -133 22 0 11 3 12 13 4 7 -6 36 -11 64 -10z m684 -21 c16 -16 29 -38 29 -48 -1 -12 -5 -8 -14 12 -7 17 -25 36 -40 43 -33 15 -39 15 -30 0 4 -6 3 -8 -4 -4 -19 11 -24 -32 -7 -64 22 -42 12 -38 -14 6 l-22 37 22 23 c29 31 44 30 80 -5z m-308 -39 c-8 -44 12 -36 33 15 8 19 20 33 27 30 18 -6 21 -88 3 -112 -14 -19 -15 -17 -6 15 13 45 13 90 0 90 -5 0 -10 -6 -10 -12 0 -18 -40 -82 -46 -75 -11 10 -24 88 -18 99 12 19 22 -14 17 -50z m173 43 c18 -14 18 -14 -4 -15 -13 0 -20 4 -17 10 3 6 -3 10 -14 10 -17 0 -20 -5 -15 -32 4 -30 4 -31 -6 -9 -20 47 13 68 56 36z m-636 -2 c0 -5 -17 -18 -38 -31 l-37 -23 35 30 c38 33 40 34 40 24z m280 -25 c0 -43 -11 -82 -19 -70 -9 15 -1 102 10 102 5 0 9 -15 9 -32z m137 16 c9 -24 -10 -49 -38 -51 l-24 -2 24 7 c14 4 26 13 28 19 6 16 -35 36 -63 30 -13 -2 -21 0 -18 4 10 17 84 10 91 -7z m-379 -51 c-5 -44 -28 -40 -28 5 0 21 3 42 7 46 11 11 25 -22 21 -51z m739 -22 c-13 -5 -67 50 -61 61 4 6 20 -5 38 -24 17 -18 27 -35 23 -37z m-400 52 c-4 -3 -10 -3 -14 0 -3 4 0 7 7 7 7 0 10 -3 7 -7z m-30 -10 c-4 -3 -10 -3 -14 0 -3 4 0 7 7 7 7 0 10 -3 7 -7z m296 -10 c-7 -2 -21 -2 -30 0 -10 3 -4 5 12 5 17 0 24 -2 18 -5z m-507 -38 c-3 -10 -12 -15 -21 -11 -8 3 -17 1 -20 -4 -4 -6 -20 -10 -37 -10 -25 0 -29 -3 -25 -19 2 -10 0 -26 -5 -36 -14 -25 -28 0 -19 34 6 20 17 28 47 36 21 6 44 13 51 18 6 4 14 1 17 -5 4 -7 4 -2 2 11 -4 17 -2 21 6 13 6 -6 8 -18 4 -27z m184 9 c0 -13 7 -15 29 -11 15 3 41 2 57 -3 25 -7 21 -8 -26 -9 -51 -1 -80 10 -80 31 0 4 5 8 10 8 6 0 10 -7 10 -16z m318 -11 c4 3 14 2 22 -4 10 -6 -1 -8 -35 -8 -27 1 -42 3 -32 6 10 3 14 9 10 16 -4 7 0 7 10 -1 9 -8 20 -11 25 -9z m-439 -54 c-11 -16 -23 -28 -26 -25 -3 3 -14 -5 -24 -17 -10 -12 -18 -19 -19 -14 0 4 -9 -2 -20 -13 -12 -12 -25 -18 -30 -15 -6 4 -10 2 -10 -2 0 -12 -76 -32 -130 -35 -49 -2 -70 6 -70 25 0 9 2 9 8 0 15 -24 125 -9 196 26 64 31 126 90 126 121 1 12 3 11 11 -3 8 -13 5 -25 -12 -48z m-204 41 c7 -12 -12 -12 -40 0 -18 8 -17 9 7 9 15 1 30 -3 33 -9z m282 -47 c-24 -6 -17 -24 21 -49 27 -18 29 -24 17 -34 -8 -6 -20 -8 -26 -4 -9 5 -7 10 7 15 16 6 16 8 2 8 -9 1 -24 11 -33 24 -13 19 -17 20 -25 7 -6 -9 -10 -10 -10 -3 0 26 12 39 38 40 15 0 19 -1 9 -4z m72 -52 c-2 -6 -10 2 -17 17 -11 25 -11 25 4 10 9 -9 15 -21 13 -27z m-84 -11 c3 -5 2 -10 -4 -10 -5 0 -13 5 -16 10 -3 6 -2 10 4 10 5 0 13 -4 16 -10z"/>
<path d="M2070 720 l0 -190 60 0 60 0 0 190 0 190 -60 0 -60 0 0 -190z"/>
<path d="M1284 258 c-4 -7 -3 -8 4 -4 7 4 12 9 12 12 0 8 -9 4 -16 -8z"/>
</g>
<g id="layer107" fill="#b9a98c" stroke="none">
<path d="M0 475 l0 -475 1540 0 1540 0 0 475 0 475 -840 0 c-462 0 -840 -3 -840 -8 0 -4 19 -16 42 -27 111 -54 149 -195 82 -311 -26 -46 -53 -67 -116 -89 -95 -33 -190 -13 -259 55 -38 36 -49 55 -58 98 -22 104 22 203 109 247 28 14 50 28 50 30 0 3 -281 5 -625 5 l-625 0 0 -475z m705 363 c-1 -86 9 -100 25 -38 5 22 15 58 20 80 11 40 11 40 60 40 49 0 49 0 60 -40 5 -22 15 -58 20 -80 17 -64 30 -47 30 40 l0 80 65 0 65 0 0 -200 0 -200 -80 0 c-44 0 -83 0 -87 -1 -4 0 -20 48 -34 106 -15 59 -30 109 -34 113 -11 11 -21 -15 -45 -118 l-23 -99 -90 -3 c-49 -2 -91 -1 -93 1 -7 7 -5 368 2 386 5 13 19 15 73 13 l66 -3 0 -77z m1250 -105 c37 -104 70 -194 73 -201 3 -10 -12 -12 -68 -10 l-73 3 -39 120 c-35 107 -60 158 -71 144 -2 -2 -23 -60 -47 -129 -24 -69 -46 -129 -50 -134 -6 -6 -140 -16 -140 -10 0 5 142 389 146 395 3 5 49 9 103 9 l98 0 68 -187z m248 -16 c1 -108 -1 -198 -5 -200 -4 -1 -37 0 -73 1 l-65 4 0 199 0 200 70 -3 71 -3 2 -198z m417 148 l0 -54 -117 -3 c-110 -3 -118 -4 -118 -23 0 -19 8 -20 113 -23 l112 -3 0 -44 0 -45 -109 0 c-84 0 -110 -3 -114 -14 -3 -8 -3 -17 0 -20 4 -3 57 -6 120 -6 l113 0 0 -55 0 -54 -186 -3 c-102 -2 -188 -1 -190 1 -7 7 -4 387 3 394 3 4 89 7 190 7 l183 0 0 -55z m-788 -425 c25 0 78 -53 77 -77 0 -16 -1 -15 -9 3 -4 11 -20 28 -34 37 -37 25 -35 -1 3 -42 16 -17 25 -33 20 -36 -4 -3 -24 11 -43 31 -41 43 -55 40 -31 -5 21 -42 12 -39 -14 5 -12 21 -19 44 -16 57 3 12 -1 42 -10 66 -12 35 -13 47 -3 59 11 12 15 5 26 -42 11 -44 18 -56 34 -56z m-635 -8 c79 0 119 -18 133 -63 11 -33 10 -42 -11 -85 -22 -43 -33 -53 -109 -91 -69 -36 -97 -44 -148 -47 -43 -2 -66 1 -74 11 -6 7 -8 16 -4 20 3 3 6 1 6 -5 0 -8 21 -11 65 -8 121 6 255 96 255 172 0 17 -8 38 -17 46 -27 23 -89 40 -121 34 -25 -6 -27 -10 -27 -55 0 -49 0 -49 30 -44 17 3 38 14 47 25 17 19 18 19 25 3 8 -23 -17 -42 -69 -50 -26 -5 -38 -11 -34 -20 2 -7 -2 -21 -9 -32 -15 -19 -15 -19 -19 31 -1 13 -12 22 -33 28 -18 5 -33 11 -33 14 0 3 15 4 33 2 32 -3 32 -3 29 37 -2 22 -6 42 -7 44 -2 2 -19 -7 -37 -20 -27 -18 -25 -15 12 22 25 24 50 41 55 37 6 -4 34 -7 62 -6z m376 -54 c-7 -38 8 -35 28 5 23 47 43 41 47 -13 2 -30 -2 -52 -13 -65 -13 -15 -15 -16 -11 -3 13 42 17 88 9 88 -6 0 -18 -16 -29 -35 -10 -19 -23 -34 -29 -32 -13 5 -29 73 -20 94 10 27 25 -5 18 -39z m173 37 c18 -14 17 -14 -13 -15 -22 0 -33 -5 -33 -14 0 -9 13 -16 33 -19 29 -4 30 -5 9 -12 -24 -8 -25 -29 -1 -31 47 -5 45 -4 29 -13 -17 -10 -82 -2 -75 9 2 4 0 24 -6 44 -6 21 -8 44 -5 52 7 18 37 18 62 -1z m-356 -34 c0 -45 -10 -77 -19 -63 -9 15 -1 102 10 102 5 0 9 -18 9 -39z m138 10 c4 -27 -12 -41 -48 -40 -23 1 -23 2 4 8 16 3 31 12 33 18 5 15 -44 36 -69 30 -10 -3 -15 -1 -12 4 3 6 25 9 47 7 36 -3 43 -7 45 -27z m-48 -11 c-8 -5 -22 -9 -30 -9 -10 0 -8 3 5 9 27 12 43 12 25 0z m-42 -42 c-2 -8 9 -13 27 -14 71 -2 81 -4 65 -14 -23 -15 -73 -12 -98 6 -25 17 -29 34 -7 34 8 0 14 -6 13 -12z m-28 -79 c12 -9 11 -10 -7 -6 -13 3 -25 1 -28 -3 -6 -10 43 -50 61 -50 17 0 18 21 2 40 -11 12 -10 12 5 1 24 -18 21 -38 -7 -56 -42 -28 -104 12 -92 60 7 27 38 34 66 14z"/>
<path d="M1261 784 c-47 -60 -11 -154 59 -154 40 0 90 47 90 85 0 33 -24 81 -45 89 -39 15 -83 6 -104 -20z"/>
</g>
<g id="layer108" fill="#cab592" stroke="none">
<path d="M0 475 l0 -475 1540 0 1540 0 0 475 0 475 -840 0 c-493 0 -840 -4 -840 -9 0 -5 12 -13 28 -19 38 -13 89 -58 109 -96 11 -20 17 -56 17 -102 1 -62 -3 -77 -29 -120 -39 -63 -95 -95 -179 -101 -88 -7 -153 15 -204 71 -96 104 -67 278 58 341 28 14 50 28 50 30 0 3 -281 5 -625 5 l-625 0 0 -475z m705 363 c0 -43 2 -78 6 -78 4 0 12 24 19 53 23 105 26 108 83 105 l51 -3 19 -77 c11 -43 23 -78 28 -78 5 0 9 36 9 80 l0 80 65 0 65 0 0 -200 0 -200 -80 0 c-44 0 -83 0 -87 -1 -4 0 -11 15 -16 33 -30 121 -50 188 -57 188 -4 0 -19 -48 -34 -107 -14 -58 -27 -107 -29 -109 -1 -1 -43 -4 -92 -5 l-90 -2 -3 179 c-1 98 0 189 3 202 5 21 10 23 73 20 l67 -3 0 -77z m1197 45 c33 -82 58 -149 58 -158 1 -6 9 -28 20 -50 11 -22 20 -47 20 -55 0 -8 7 -28 15 -44 28 -52 22 -57 -57 -54 l-72 3 -41 123 c-38 111 -58 153 -68 141 -3 -2 -24 -64 -49 -138 l-44 -134 -72 -1 c-55 -1 -71 2 -67 12 2 7 12 38 21 70 9 31 20 62 24 67 4 6 14 30 21 55 7 25 16 50 19 55 4 6 13 28 20 50 30 101 23 95 136 95 l101 0 15 -37z m301 -166 c1 -108 -1 -198 -5 -200 -4 -1 -37 0 -73 1 l-65 4 0 199 0 200 70 -3 71 -3 2 -198z m417 148 l0 -54 -112 -3 c-109 -3 -113 -4 -116 -25 -3 -23 -2 -23 107 -23 l111 0 0 -45 0 -45 -111 0 c-100 0 -110 -2 -107 -17 3 -16 18 -18 116 -21 l112 -3 0 -54 0 -54 -186 -3 c-102 -2 -188 -1 -190 1 -7 7 -4 387 3 394 3 4 89 7 190 7 l183 0 0 -55z m-778 -423 c52 -6 88 -83 53 -112 -13 -10 -21 -6 -50 26 -39 43 -54 41 -31 -5 14 -26 14 -30 2 -25 -19 7 -39 65 -30 87 3 9 -2 39 -11 67 -14 42 -15 53 -4 66 11 14 15 8 29 -43 13 -51 18 -58 42 -61z m-697 -1 c3 -5 21 -7 39 -4 43 7 133 -22 146 -47 16 -30 11 -72 -13 -114 -32 -58 -166 -126 -254 -130 -51 -2 -66 1 -80 16 -9 11 -11 18 -5 18 7 0 12 -4 12 -8 0 -15 73 -12 130 4 77 22 147 69 170 115 25 47 25 71 3 91 -45 39 -163 48 -149 11 3 -8 6 -28 6 -44 0 -25 4 -29 29 -29 29 0 57 21 44 33 -3 4 1 7 10 7 23 0 22 -37 -1 -49 -9 -5 -34 -12 -55 -16 -25 -5 -37 -12 -33 -20 2 -7 -2 -21 -9 -32 -15 -19 -15 -19 -19 30 0 12 -15 24 -39 32 -53 18 -56 24 -8 18 l41 -6 0 41 0 40 -30 -14 c-16 -9 -30 -20 -30 -25 0 -5 -4 -9 -10 -9 -19 0 -9 15 30 44 22 17 40 36 40 43 0 15 26 18 35 4z m366 -21 c29 -16 25 -58 -6 -65 -14 -3 -36 -7 -50 -10 -15 -3 -23 -10 -19 -16 3 -6 15 -8 27 -5 29 7 82 -5 65 -15 -21 -14 -72 -10 -96 7 -27 19 -28 34 -3 34 28 0 37 20 9 21 -23 1 -23 1 2 9 43 14 54 12 40 -5 -10 -12 -10 -15 1 -15 8 0 21 5 29 10 25 15 -5 35 -53 34 l-42 -1 30 13 c37 16 42 16 66 4z m62 -42 c-7 -37 8 -35 28 4 19 40 34 45 49 17 13 -24 -1 -92 -21 -105 -7 -4 -9 0 -6 12 15 53 18 84 8 84 -6 0 -11 -6 -11 -12 -1 -7 -11 -26 -24 -42 l-23 -28 -12 32 c-12 37 -14 73 -4 83 12 12 22 -16 16 -45z m177 37 c11 -13 8 -15 -20 -15 -40 0 -36 -22 6 -31 28 -7 28 -7 7 -14 -29 -9 -20 -25 13 -25 16 0 24 -5 21 -12 -2 -8 -20 -12 -48 -11 -57 2 -56 2 -40 12 11 7 12 13 5 23 -6 7 -11 30 -13 51 -2 35 0 37 27 37 16 0 35 -7 42 -15z m-360 -49 c0 -30 -4 -57 -9 -61 -12 -7 -17 18 -12 72 5 62 21 53 21 -11z m51 -122 c26 -24 24 -49 -6 -62 -49 -22 -101 17 -90 66 6 28 8 29 41 22 20 -5 44 -16 55 -26z"/>
<path d="M1840 410 c0 -17 42 -70 52 -64 16 10 7 33 -22 54 -16 12 -30 16 -30 10z"/>
<path d="M1380 241 c0 -6 11 -18 26 -27 19 -13 28 -14 37 -5 14 14 1 27 -35 36 -18 5 -28 3 -28 -4z"/>
<path d="M1370 210 c0 -5 5 -10 11 -10 5 0 7 5 4 10 -3 6 -8 10 -11 10 -2 0 -4 -4 -4 -10z"/>
</g>
<g id="layer109" fill="#c6bdac" stroke="none">
<path d="M0 475 l0 -475 1540 0 1540 0 0 475 0 475 -840 0 c-493 0 -840 -4 -840 -9 0 -5 12 -13 28 -19 38 -13 89 -58 109 -96 11 -20 17 -56 17 -102 1 -62 -3 -77 -29 -120 -39 -63 -95 -95 -179 -101 -88 -7 -153 15 -204 71 -96 104 -67 278 58 341 28 14 50 28 50 30 0 3 -281 5 -625 5 l-625 0 0 -475z m707 390 c3 -104 3 -104 14 -70 6 17 16 50 22 75 l12 45 57 3 56 3 12 -58 c16 -79 18 -83 30 -83 6 0 10 29 10 70 l0 70 70 0 70 0 -2 -201 -3 -201 -89 0 c-64 0 -91 4 -96 14 -4 7 -18 55 -30 106 -13 51 -27 89 -31 85 -4 -5 -19 -51 -32 -103 l-24 -95 -93 -5 c-50 -3 -94 -3 -96 -1 -7 7 -5 368 2 386 5 13 19 15 73 13 l66 -3 2 -50z m1199 18 c17 -41 39 -100 74 -203 12 -36 28 -79 36 -97 26 -57 21 -63 -51 -63 -36 0 -68 0 -72 -1 -5 -1 -28 58 -53 129 -25 72 -48 134 -52 137 -3 4 -11 -11 -18 -32 -7 -21 -18 -51 -25 -68 -7 -16 -21 -58 -30 -93 -10 -35 -23 -66 -28 -69 -20 -12 -147 -9 -147 4 0 11 50 155 69 198 5 11 19 49 31 85 43 123 26 110 145 110 l105 0 16 -37z m297 -166 c1 -108 -1 -198 -5 -200 -4 -1 -37 0 -73 1 l-65 4 0 199 0 200 70 -3 71 -3 2 -198z m417 148 l0 -54 -112 -3 c-105 -3 -113 -4 -113 -23 0 -19 8 -20 108 -23 l107 -3 0 -44 0 -45 -111 0 c-100 0 -110 -2 -107 -17 3 -16 18 -18 116 -21 l112 -3 0 -54 0 -54 -186 -3 c-102 -2 -188 -1 -190 1 -7 7 -4 387 3 394 3 4 89 7 190 7 l183 0 0 -55z m-804 -412 c2 -7 14 -13 28 -13 43 0 77 -60 60 -104 -9 -23 -24 -20 -56 11 -28 27 -51 26 -28 -1 6 -9 10 -21 8 -28 -7 -21 -40 40 -43 80 -2 20 -8 59 -14 86 -9 37 -9 52 1 63 12 14 14 10 44 -94z m-673 -10 c4 -3 31 -7 60 -8 69 -1 124 -26 133 -59 26 -105 -103 -219 -264 -233 -56 -5 -71 -3 -85 12 -24 23 -17 27 21 14 80 -28 243 48 288 134 30 56 -17 107 -97 107 l-49 0 0 -45 c0 -39 3 -45 21 -45 28 0 61 19 54 31 -4 5 1 9 10 9 22 0 30 -29 13 -47 -9 -8 -34 -17 -56 -20 -35 -5 -42 -10 -47 -34 -10 -43 -23 -44 -31 -4 -5 29 -12 37 -35 42 -16 3 -33 11 -39 18 -9 11 -3 12 30 8 l40 -6 0 37 c0 41 -7 44 -43 16 -27 -21 -37 -25 -37 -12 0 4 18 20 40 36 22 17 40 36 40 43 0 14 22 18 33 6z m371 -26 c11 -8 17 -23 14 -38 -2 -19 -12 -26 -48 -36 -51 -13 -48 -15 38 -21 12 -1 22 -7 22 -12 0 -7 -22 -10 -56 -8 -67 4 -93 27 -59 52 11 9 14 16 8 16 -25 0 -13 38 15 48 37 14 45 14 66 -1z m59 -1 c3 -8 3 -24 0 -35 -7 -26 13 -28 22 -2 3 11 12 25 20 31 36 30 60 -45 32 -99 -11 -22 -36 -28 -29 -7 2 6 6 24 9 40 l5 31 -31 -35 c-25 -29 -32 -33 -41 -20 -12 19 -13 110 -1 110 5 0 11 -6 14 -14z m182 -6 c0 -11 -8 -14 -29 -12 -19 2 -27 -1 -24 -10 3 -7 17 -14 31 -16 32 -4 37 -22 6 -22 -11 0 -17 -4 -14 -10 3 -5 18 -10 31 -10 38 0 24 -24 -15 -28 -43 -4 -68 5 -54 19 8 8 7 19 -3 37 -15 30 -18 55 -7 66 14 13 78 2 78 -14z m-365 -44 c0 -57 -13 -82 -24 -43 -8 30 -8 82 1 90 16 17 23 3 23 -47z m51 -122 c26 -24 24 -49 -6 -62 -29 -14 -61 -4 -89 27 -17 18 -17 25 -7 45 11 20 17 22 48 16 19 -5 43 -16 54 -26z"/>
<path d="M1430 390 c0 -5 6 -10 14 -10 8 0 18 5 21 10 3 6 -3 10 -14 10 -12 0 -21 -4 -21 -10z"/>
<path d="M1380 241 c0 -8 43 -41 55 -41 14 0 3 30 -14 40 -24 12 -41 13 -41 1z"/>
<path d="M1265 785 c-54 -53 -18 -155 55 -155 21 0 41 9 61 29 37 37 38 79 3 120 -33 40 -83 43 -119 6z"/>
</g>
<g id="layer110" fill="#d9d7ce" stroke="none">
<path d="M0 475 l0 -475 1540 0 1540 0 0 475 0 475 -840 0 c-462 0 -840 -4 -840 -8 0 -4 15 -14 34 -20 46 -17 102 -81 117 -134 29 -110 -14 -211 -111 -261 -49 -26 -63 -28 -131 -25 -97 6 -151 34 -193 102 -70 113 -16 285 101 321 72 21 -19 25 -597 25 l-620 0 0 -475z m707 395 c1 -30 2 -66 3 -80 1 -14 11 11 24 55 l22 80 55 0 54 0 19 -72 c10 -40 23 -73 28 -73 5 0 8 33 7 73 l-2 72 69 0 69 0 0 -203 0 -204 -89 0 c-64 0 -91 4 -96 14 -4 7 -18 55 -30 106 -13 51 -27 89 -31 85 -4 -5 -19 -51 -32 -103 l-24 -95 -93 -5 c-50 -3 -94 -3 -96 -1 -7 7 -4 397 3 405 4 4 37 6 73 4 l65 -3 2 -55z m1213 -20 c45 -119 120 -327 120 -331 0 -2 -35 -3 -77 -2 l-78 1 -45 131 c-25 71 -48 133 -51 136 -4 3 -26 -51 -49 -122 -23 -70 -46 -132 -51 -137 -13 -14 -149 -13 -149 1 0 17 131 376 143 391 7 9 38 12 109 10 l100 -3 28 -75z m280 73 c5 -153 3 -404 -2 -406 -4 -1 -37 0 -72 1 l-65 4 -3 200 c-2 110 -1 202 1 204 8 7 141 4 141 -3z m420 -53 l0 -59 -112 -3 c-98 -3 -113 -5 -116 -20 -3 -16 7 -18 106 -18 60 0 111 -2 113 -4 2 -3 3 -25 1 -50 l-4 -46 -110 0 c-99 0 -109 -2 -106 -17 3 -16 18 -18 116 -21 l112 -3 0 -54 0 -54 -186 -3 c-102 -2 -188 -1 -190 1 -7 7 -4 397 3 404 3 4 89 7 190 7 l183 0 0 -60z m-814 -373 c4 -29 13 -41 32 -50 48 -20 72 -48 72 -84 0 -46 -24 -53 -61 -17 -31 30 -34 29 -19 -10 6 -16 6 -26 0 -26 -17 0 -43 50 -45 88 -2 20 -8 59 -14 86 -9 37 -9 52 0 63 16 18 25 4 35 -50z m-515 -78 c100 -50 44 -184 -106 -250 -62 -27 -173 -36 -200 -16 -15 12 -17 18 -8 28 9 9 15 8 28 -5 44 -43 236 35 285 117 26 43 25 53 -9 88 -25 24 -37 29 -80 29 l-51 0 0 -45 c0 -39 3 -45 21 -45 28 0 61 19 54 31 -4 5 1 9 10 9 22 0 30 -29 13 -47 -9 -8 -34 -17 -56 -20 -35 -5 -42 -10 -47 -34 -10 -43 -23 -44 -31 -4 -5 29 -12 37 -35 42 -34 6 -62 35 -54 54 3 8 24 27 45 43 22 17 40 35 40 42 0 18 138 5 181 -17z m466 -1 c19 -16 4 -30 -24 -23 -18 4 -24 2 -21 -7 3 -7 14 -14 26 -16 28 -4 29 -22 1 -22 -11 0 -17 -4 -14 -10 3 -5 18 -10 31 -10 38 0 24 -24 -15 -28 -43 -4 -68 5 -54 19 8 8 7 19 -3 37 -17 33 -18 54 -2 70 14 14 54 8 75 -10z m-366 -54 c-1 -32 -5 -61 -7 -63 -9 -9 -17 10 -21 53 -6 51 1 80 19 74 8 -3 11 -24 9 -64z m129 51 c7 -8 16 -15 21 -15 5 0 9 7 9 15 0 8 4 15 9 15 11 0 21 -25 21 -53 0 -19 3 -17 20 11 28 46 54 40 58 -13 2 -42 -16 -90 -33 -84 -5 2 -9 8 -7 13 2 6 6 24 9 40 l5 31 -31 -35 c-25 -29 -32 -33 -41 -20 -5 8 -10 26 -10 39 0 22 -1 23 -17 8 -10 -8 -34 -19 -53 -24 l-35 -10 48 -7 c64 -10 60 -26 -7 -26 -62 0 -88 19 -69 50 9 13 9 21 0 29 -9 10 -7 17 12 32 28 23 74 25 91 4z m-82 -163 c30 -19 29 -56 -3 -70 -29 -14 -61 -4 -89 27 -15 17 -17 26 -9 44 9 20 17 23 45 19 18 -3 43 -12 56 -20z"/>
<path d="M1063 365 c-24 -21 -26 -26 -13 -35 8 -5 25 -10 38 -10 19 0 22 5 22 35 0 41 -9 44 -47 10z"/>
<path d="M1265 785 c-32 -31 -34 -96 -5 -125 43 -43 112 -32 138 23 41 85 -68 168 -133 102z"/>
</g>
<g id="layer111" fill="#fefffe" stroke="none">
<path d="M0 475 l0 -475 1540 0 1540 0 0 475 0 475 -842 0 c-463 0 -838 -3 -834 -7 4 -4 28 -19 54 -33 118 -64 138 -256 36 -352 -56 -53 -175 -74 -265 -47 -46 14 -104 60 -124 99 -21 41 -29 128 -16 178 15 53 71 117 117 134 19 6 34 16 34 20 0 4 -279 8 -620 8 l-620 0 0 -475z m710 398 c-3 -105 1 -109 24 -28 l22 80 55 3 55 3 18 -76 c10 -41 22 -75 28 -75 5 0 8 30 7 73 l-2 72 71 3 72 3 -2 -206 -3 -207 -89 0 c-64 0 -91 4 -96 14 -4 7 -18 55 -30 106 -13 51 -27 89 -31 85 -4 -5 -19 -51 -32 -103 l-24 -95 -93 -5 c-50 -3 -94 -3 -96 -1 -2 2 -4 96 -4 208 l0 203 76 0 75 0 -1 -57z m1189 35 c21 -52 141 -384 141 -389 0 -2 -35 -3 -77 -2 l-78 1 -45 131 c-25 71 -48 133 -51 136 -4 3 -26 -51 -49 -122 -23 -70 -46 -132 -51 -137 -13 -14 -149 -13 -149 1 0 6 30 94 66 195 36 101 67 189 70 196 2 8 33 12 109 12 100 0 106 -1 114 -22z m306 -180 c0 -112 -3 -205 -6 -208 -4 -3 -36 -3 -73 -2 l-65 4 -3 200 c-2 110 -1 202 1 204 2 2 36 4 75 4 l71 0 0 -202z m415 142 l0 -59 -112 -3 c-98 -3 -113 -5 -116 -20 -3 -16 7 -18 106 -18 60 0 111 -2 113 -4 2 -3 3 -25 1 -50 l-4 -46 -109 0 c-90 0 -109 -3 -109 -15 0 -12 17 -15 88 -16 161 -2 146 4 143 -59 -1 -30 -4 -56 -5 -57 -1 -1 -85 -3 -186 -3 l-185 -2 -3 206 -2 206 190 0 190 0 0 -60z m-815 -365 c12 -36 23 -55 33 -55 30 0 72 -51 72 -87 0 -46 -24 -53 -62 -17 -30 28 -31 26 -12 -21 3 -8 1 -15 -5 -15 -18 0 -44 48 -46 88 -2 20 -8 59 -14 86 -9 36 -9 52 0 62 6 8 13 14 14 14 2 0 11 -25 20 -55z m-549 -71 c49 -7 84 -46 84 -91 0 -95 -126 -188 -268 -200 -51 -4 -72 -1 -87 10 -17 13 -18 18 -6 29 11 10 14 10 18 1 12 -33 158 -1 231 49 43 29 82 80 82 106 0 8 -13 27 -29 43 -25 24 -37 29 -80 29 l-51 0 0 -45 0 -44 33 6 c34 6 61 23 37 23 -11 0 -11 3 -2 12 16 16 47 -14 39 -36 -7 -19 -47 -36 -82 -36 -18 0 -25 -7 -30 -30 -10 -44 -23 -46 -31 -5 -5 29 -12 37 -35 42 -34 6 -62 35 -54 54 3 8 24 27 45 43 22 17 40 35 40 42 0 12 59 11 146 -2z m492 -10 c28 -19 18 -38 -15 -29 -18 4 -24 2 -21 -7 3 -7 14 -14 26 -16 28 -4 29 -22 1 -22 -11 0 -17 -4 -14 -10 3 -5 19 -10 36 -10 31 0 39 -14 13 -24 -41 -16 -114 0 -85 18 6 4 4 17 -5 34 -17 33 -18 54 -2 70 16 16 39 15 66 -4z m-357 -60 c-1 -32 -5 -61 -7 -63 -9 -9 -17 10 -21 53 -6 51 1 80 19 74 8 -3 11 -24 9 -64z m141 49 c17 -15 18 -15 18 0 0 10 4 17 9 17 11 0 21 -25 21 -53 0 -18 4 -16 21 13 28 46 26 45 44 30 18 -15 20 -76 2 -109 -11 -22 -36 -28 -29 -7 2 6 6 24 9 40 l5 31 -31 -35 c-25 -29 -32 -33 -41 -20 -5 8 -10 26 -10 39 0 22 -1 23 -17 8 -10 -8 -34 -20 -53 -25 l-35 -10 30 -2 c17 -1 38 -2 48 -1 9 1 17 -4 17 -13 0 -13 -12 -16 -53 -16 -29 0 -58 5 -65 12 -15 15 -16 48 -1 48 8 0 7 6 -2 16 -11 14 -10 19 10 35 29 23 78 25 103 2z m-101 -156 c45 -30 48 -52 10 -71 -51 -27 -118 16 -105 68 8 34 48 35 95 3z"/>
<path d="M1860 380 c12 -16 23 -30 26 -30 10 0 3 30 -12 44 -27 27 -36 17 -14 -14z"/>
<path d="M1063 366 c-32 -28 -31 -31 15 -39 31 -6 32 -6 32 28 0 41 -9 43 -47 11z"/>
<path d="M1430 390 c0 -5 4 -10 9 -10 6 0 13 5 16 10 3 6 -1 10 -9 10 -9 0 -16 -4 -16 -10z"/>
<path d="M1395 230 c19 -21 45 -27 45 -10 0 11 -33 30 -51 30 -8 0 -5 -7 6 -20z"/>
<path d="M1285 799 c-49 -28 -60 -87 -24 -133 26 -33 88 -37 119 -6 25 25 27 90 3 119 -22 25 -71 35 -98 20z"/>
</g>


</svg>